<mxfile host="app.diagrams.net" modified="2022-09-05T10:36:08.791Z" agent="5.0 (Macintosh; Intel Mac OS X 10_15_7) AppleWebKit/537.36 (KHTML, like Gecko) Chrome/104.0.0.0 Safari/537.36" etag="0zaJ0wGBVRS-XdqzcGco" version="20.2.7" type="github">
  <diagram id="9V4NbuOv6KixOeT9Z-KL" name="第 1 页">
    <mxGraphModel dx="2594" dy="1466" grid="0" gridSize="10" guides="1" tooltips="1" connect="1" arrows="1" fold="1" page="0" pageScale="1" pageWidth="827" pageHeight="1169" math="0" shadow="0">
      <root>
        <mxCell id="0" />
        <mxCell id="1" parent="0" />
        <mxCell id="GRWqvdnfIO7P4JQaUzWa-18" value="发版" style="shape=umlFrame;whiteSpace=wrap;html=1;sketch=1;hachureGap=4;fontFamily=Architects Daughter;fontSource=https%3A%2F%2Ffonts.googleapis.com%2Fcss%3Ffamily%3DArchitects%2BDaughter;fontSize=20;" vertex="1" parent="1">
          <mxGeometry x="-35" y="-53" width="1399" height="948" as="geometry" />
        </mxCell>
        <mxCell id="GRWqvdnfIO7P4JQaUzWa-13" value="qa" style="shape=umlFrame;whiteSpace=wrap;html=1;sketch=1;hachureGap=4;fontFamily=Architects Daughter;fontSource=https%3A%2F%2Ffonts.googleapis.com%2Fcss%3Ffamily%3DArchitects%2BDaughter;fontSize=20;" vertex="1" parent="1">
          <mxGeometry x="532" y="3" width="790" height="865" as="geometry" />
        </mxCell>
        <mxCell id="GRWqvdnfIO7P4JQaUzWa-30" value="main" style="shape=umlFrame;whiteSpace=wrap;html=1;sketch=1;hachureGap=4;fontFamily=Architects Daughter;fontSource=https%3A%2F%2Ffonts.googleapis.com%2Fcss%3Ffamily%3DArchitects%2BDaughter;fontSize=20;" vertex="1" parent="1">
          <mxGeometry x="568" y="41" width="383" height="805" as="geometry" />
        </mxCell>
        <mxCell id="GRWqvdnfIO7P4JQaUzWa-36" value="其他" style="shape=umlFrame;whiteSpace=wrap;html=1;sketch=1;hachureGap=4;fontFamily=Architects Daughter;fontSource=https%3A%2F%2Ffonts.googleapis.com%2Fcss%3Ffamily%3DArchitects%2BDaughter;fontSize=20;" vertex="1" parent="1">
          <mxGeometry x="974" y="41" width="300" height="398" as="geometry" />
        </mxCell>
        <mxCell id="GRWqvdnfIO7P4JQaUzWa-8" value="pm" style="shape=umlFrame;whiteSpace=wrap;html=1;sketch=1;hachureGap=4;fontFamily=Architects Daughter;fontSource=https%3A%2F%2Ffonts.googleapis.com%2Fcss%3Ffamily%3DArchitects%2BDaughter;fontSize=20;" vertex="1" parent="1">
          <mxGeometry x="13" y="9" width="421" height="563" as="geometry" />
        </mxCell>
        <mxCell id="GRWqvdnfIO7P4JQaUzWa-16" style="edgeStyle=orthogonalEdgeStyle;curved=1;rounded=0;sketch=1;hachureGap=4;orthogonalLoop=1;jettySize=auto;html=1;exitX=0.5;exitY=1;exitDx=0;exitDy=0;entryX=0.475;entryY=-0.031;entryDx=0;entryDy=0;entryPerimeter=0;fontFamily=Architects Daughter;fontSource=https%3A%2F%2Ffonts.googleapis.com%2Fcss%3Ffamily%3DArchitects%2BDaughter;fontSize=16;endArrow=open;startSize=14;endSize=14;sourcePerimeterSpacing=8;targetPerimeterSpacing=8;" edge="1" parent="1" source="GRWqvdnfIO7P4JQaUzWa-9" target="GRWqvdnfIO7P4JQaUzWa-11">
          <mxGeometry relative="1" as="geometry" />
        </mxCell>
        <mxCell id="GRWqvdnfIO7P4JQaUzWa-9" value="美术查错确认" style="rounded=1;whiteSpace=wrap;html=1;sketch=1;hachureGap=4;fontFamily=Architects Daughter;fontSource=https%3A%2F%2Ffonts.googleapis.com%2Fcss%3Ffamily%3DArchitects%2BDaughter;fontSize=20;" vertex="1" parent="1">
          <mxGeometry x="133.25" y="80" width="146.5" height="60" as="geometry" />
        </mxCell>
        <mxCell id="GRWqvdnfIO7P4JQaUzWa-17" value="" style="edgeStyle=orthogonalEdgeStyle;curved=1;rounded=0;sketch=1;hachureGap=4;orthogonalLoop=1;jettySize=auto;html=1;fontFamily=Architects Daughter;fontSource=https%3A%2F%2Ffonts.googleapis.com%2Fcss%3Ffamily%3DArchitects%2BDaughter;fontSize=16;endArrow=open;startSize=14;endSize=14;sourcePerimeterSpacing=8;targetPerimeterSpacing=8;" edge="1" parent="1" source="GRWqvdnfIO7P4JQaUzWa-11" target="GRWqvdnfIO7P4JQaUzWa-12">
          <mxGeometry relative="1" as="geometry" />
        </mxCell>
        <mxCell id="GRWqvdnfIO7P4JQaUzWa-28" style="edgeStyle=orthogonalEdgeStyle;curved=1;rounded=0;sketch=1;hachureGap=4;orthogonalLoop=1;jettySize=auto;html=1;fontFamily=Architects Daughter;fontSource=https%3A%2F%2Ffonts.googleapis.com%2Fcss%3Ffamily%3DArchitects%2BDaughter;fontSize=16;endArrow=open;startSize=14;endSize=14;sourcePerimeterSpacing=8;targetPerimeterSpacing=8;" edge="1" parent="1" source="GRWqvdnfIO7P4JQaUzWa-11" target="GRWqvdnfIO7P4JQaUzWa-24">
          <mxGeometry relative="1" as="geometry" />
        </mxCell>
        <mxCell id="GRWqvdnfIO7P4JQaUzWa-33" style="edgeStyle=orthogonalEdgeStyle;curved=1;rounded=0;sketch=1;hachureGap=4;orthogonalLoop=1;jettySize=auto;html=1;fontFamily=Architects Daughter;fontSource=https%3A%2F%2Ffonts.googleapis.com%2Fcss%3Ffamily%3DArchitects%2BDaughter;fontSize=16;endArrow=open;startSize=14;endSize=14;sourcePerimeterSpacing=8;targetPerimeterSpacing=8;" edge="1" parent="1" source="GRWqvdnfIO7P4JQaUzWa-11" target="GRWqvdnfIO7P4JQaUzWa-23">
          <mxGeometry relative="1" as="geometry">
            <Array as="points">
              <mxPoint x="680" y="274" />
              <mxPoint x="680" y="291" />
            </Array>
          </mxGeometry>
        </mxCell>
        <mxCell id="GRWqvdnfIO7P4JQaUzWa-11" value="封版&lt;br&gt;p4版本号&lt;br&gt;svn版本号" style="rounded=1;whiteSpace=wrap;html=1;sketch=1;hachureGap=4;fontFamily=Architects Daughter;fontSource=https%3A%2F%2Ffonts.googleapis.com%2Fcss%3Ffamily%3DArchitects%2BDaughter;fontSize=20;" vertex="1" parent="1">
          <mxGeometry x="101" y="194" width="223" height="159" as="geometry" />
        </mxCell>
        <mxCell id="GRWqvdnfIO7P4JQaUzWa-29" style="edgeStyle=orthogonalEdgeStyle;curved=1;rounded=0;sketch=1;hachureGap=4;orthogonalLoop=1;jettySize=auto;html=1;fontFamily=Architects Daughter;fontSource=https%3A%2F%2Ffonts.googleapis.com%2Fcss%3Ffamily%3DArchitects%2BDaughter;fontSize=16;endArrow=open;startSize=14;endSize=14;targetPerimeterSpacing=8;entryX=0;entryY=0.5;entryDx=0;entryDy=0;startArrow=none;" edge="1" parent="1" source="GRWqvdnfIO7P4JQaUzWa-30" target="GRWqvdnfIO7P4JQaUzWa-39">
          <mxGeometry relative="1" as="geometry">
            <Array as="points">
              <mxPoint x="678" y="426" />
            </Array>
          </mxGeometry>
        </mxCell>
        <mxCell id="GRWqvdnfIO7P4JQaUzWa-50" style="edgeStyle=orthogonalEdgeStyle;curved=1;rounded=0;sketch=1;hachureGap=4;orthogonalLoop=1;jettySize=auto;html=1;fontFamily=Architects Daughter;fontSource=https%3A%2F%2Ffonts.googleapis.com%2Fcss%3Ffamily%3DArchitects%2BDaughter;fontSize=16;endArrow=open;startSize=14;endSize=14;sourcePerimeterSpacing=8;targetPerimeterSpacing=8;" edge="1" parent="1" source="GRWqvdnfIO7P4JQaUzWa-12" target="GRWqvdnfIO7P4JQaUzWa-39">
          <mxGeometry relative="1" as="geometry" />
        </mxCell>
        <mxCell id="GRWqvdnfIO7P4JQaUzWa-12" value="服务器配置" style="rounded=1;whiteSpace=wrap;html=1;sketch=1;hachureGap=4;fontFamily=Architects Daughter;fontSource=https%3A%2F%2Ffonts.googleapis.com%2Fcss%3Ffamily%3DArchitects%2BDaughter;fontSize=20;" vertex="1" parent="1">
          <mxGeometry x="152.5" y="407" width="120" height="60" as="geometry" />
        </mxCell>
        <mxCell id="GRWqvdnfIO7P4JQaUzWa-47" style="edgeStyle=orthogonalEdgeStyle;curved=1;rounded=0;sketch=1;hachureGap=4;orthogonalLoop=1;jettySize=auto;html=1;entryX=0.75;entryY=0;entryDx=0;entryDy=0;fontFamily=Architects Daughter;fontSource=https%3A%2F%2Ffonts.googleapis.com%2Fcss%3Ffamily%3DArchitects%2BDaughter;fontSize=16;endArrow=open;startSize=14;endSize=14;sourcePerimeterSpacing=8;targetPerimeterSpacing=8;" edge="1" parent="1" source="GRWqvdnfIO7P4JQaUzWa-14" target="GRWqvdnfIO7P4JQaUzWa-11">
          <mxGeometry relative="1" as="geometry" />
        </mxCell>
        <mxCell id="GRWqvdnfIO7P4JQaUzWa-14" value="修改版本号" style="rounded=1;whiteSpace=wrap;html=1;sketch=1;hachureGap=4;fontFamily=Architects Daughter;fontSource=https%3A%2F%2Ffonts.googleapis.com%2Fcss%3Ffamily%3DArchitects%2BDaughter;fontSize=20;" vertex="1" parent="1">
          <mxGeometry x="611" y="75" width="120" height="60" as="geometry" />
        </mxCell>
        <mxCell id="GRWqvdnfIO7P4JQaUzWa-15" value="功能需求分档确认" style="rounded=1;whiteSpace=wrap;html=1;sketch=1;hachureGap=4;fontFamily=Architects Daughter;fontSource=https%3A%2F%2Ffonts.googleapis.com%2Fcss%3Ffamily%3DArchitects%2BDaughter;fontSize=20;" vertex="1" parent="1">
          <mxGeometry x="1151" y="80" width="120" height="60" as="geometry" />
        </mxCell>
        <mxCell id="GRWqvdnfIO7P4JQaUzWa-19" value="发版月份：09" style="text;html=1;strokeColor=none;fillColor=none;align=center;verticalAlign=middle;whiteSpace=wrap;rounded=0;sketch=1;hachureGap=4;fontFamily=Architects Daughter;fontSource=https%3A%2F%2Ffonts.googleapis.com%2Fcss%3Ffamily%3DArchitects%2BDaughter;fontSize=20;" vertex="1" parent="1">
          <mxGeometry x="30" y="-36" width="144" height="30" as="geometry" />
        </mxCell>
        <mxCell id="GRWqvdnfIO7P4JQaUzWa-20" value="发版阶段：rc" style="text;html=1;strokeColor=none;fillColor=none;align=center;verticalAlign=middle;whiteSpace=wrap;rounded=0;sketch=1;hachureGap=4;fontFamily=Architects Daughter;fontSource=https%3A%2F%2Ffonts.googleapis.com%2Fcss%3Ffamily%3DArchitects%2BDaughter;fontSize=20;" vertex="1" parent="1">
          <mxGeometry x="183" y="-38" width="146" height="30" as="geometry" />
        </mxCell>
        <mxCell id="GRWqvdnfIO7P4JQaUzWa-23" value="cdn制作" style="rounded=1;whiteSpace=wrap;html=1;sketch=1;hachureGap=4;fontFamily=Architects Daughter;fontSource=https%3A%2F%2Ffonts.googleapis.com%2Fcss%3Ffamily%3DArchitects%2BDaughter;fontSize=20;" vertex="1" parent="1">
          <mxGeometry x="1064" y="260.5" width="120" height="60" as="geometry" />
        </mxCell>
        <mxCell id="GRWqvdnfIO7P4JQaUzWa-24" value="测试报告" style="rounded=1;whiteSpace=wrap;html=1;sketch=1;hachureGap=4;fontFamily=Architects Daughter;fontSource=https%3A%2F%2Ffonts.googleapis.com%2Fcss%3Ffamily%3DArchitects%2BDaughter;fontSize=20;" vertex="1" parent="1">
          <mxGeometry x="1066" y="167" width="120" height="60" as="geometry" />
        </mxCell>
        <mxCell id="GRWqvdnfIO7P4JQaUzWa-25" value="release_note" style="rounded=1;whiteSpace=wrap;html=1;sketch=1;hachureGap=4;fontFamily=Architects Daughter;fontSource=https%3A%2F%2Ffonts.googleapis.com%2Fcss%3Ffamily%3DArchitects%2BDaughter;fontSize=20;" vertex="1" parent="1">
          <mxGeometry x="995" y="80" width="120" height="60" as="geometry" />
        </mxCell>
        <mxCell id="GRWqvdnfIO7P4JQaUzWa-32" style="edgeStyle=orthogonalEdgeStyle;curved=1;rounded=0;sketch=1;hachureGap=4;orthogonalLoop=1;jettySize=auto;html=1;fontFamily=Architects Daughter;fontSource=https%3A%2F%2Ffonts.googleapis.com%2Fcss%3Ffamily%3DArchitects%2BDaughter;fontSize=16;endArrow=open;startSize=14;endSize=14;sourcePerimeterSpacing=8;targetPerimeterSpacing=8;" edge="1" parent="1" source="GRWqvdnfIO7P4JQaUzWa-26" target="GRWqvdnfIO7P4JQaUzWa-27">
          <mxGeometry relative="1" as="geometry" />
        </mxCell>
        <mxCell id="GRWqvdnfIO7P4JQaUzWa-26" value="刷uri" style="rounded=1;whiteSpace=wrap;html=1;sketch=1;hachureGap=4;fontFamily=Architects Daughter;fontSource=https%3A%2F%2Ffonts.googleapis.com%2Fcss%3Ffamily%3DArchitects%2BDaughter;fontSize=20;" vertex="1" parent="1">
          <mxGeometry x="779" y="75" width="120" height="60" as="geometry" />
        </mxCell>
        <mxCell id="GRWqvdnfIO7P4JQaUzWa-37" value="" style="edgeStyle=orthogonalEdgeStyle;curved=1;rounded=0;sketch=1;hachureGap=4;orthogonalLoop=1;jettySize=auto;html=1;fontFamily=Architects Daughter;fontSource=https%3A%2F%2Ffonts.googleapis.com%2Fcss%3Ffamily%3DArchitects%2BDaughter;fontSize=16;endArrow=open;startSize=14;endSize=14;sourcePerimeterSpacing=8;targetPerimeterSpacing=8;" edge="1" parent="1" source="GRWqvdnfIO7P4JQaUzWa-27" target="GRWqvdnfIO7P4JQaUzWa-34">
          <mxGeometry relative="1" as="geometry" />
        </mxCell>
        <mxCell id="GRWqvdnfIO7P4JQaUzWa-27" value="打包&lt;br&gt;客户端&lt;br&gt;视频端&lt;br&gt;云游戏端&lt;br&gt;H5端" style="rounded=1;whiteSpace=wrap;html=1;sketch=1;hachureGap=4;fontFamily=Architects Daughter;fontSource=https%3A%2F%2Ffonts.googleapis.com%2Fcss%3Ffamily%3DArchitects%2BDaughter;fontSize=20;" vertex="1" parent="1">
          <mxGeometry x="647" y="180" width="192" height="124" as="geometry" />
        </mxCell>
        <mxCell id="GRWqvdnfIO7P4JQaUzWa-41" style="edgeStyle=orthogonalEdgeStyle;curved=1;rounded=0;sketch=1;hachureGap=4;orthogonalLoop=1;jettySize=auto;html=1;exitX=0.5;exitY=1;exitDx=0;exitDy=0;fontFamily=Architects Daughter;fontSource=https%3A%2F%2Ffonts.googleapis.com%2Fcss%3Ffamily%3DArchitects%2BDaughter;fontSize=16;endArrow=open;startSize=14;endSize=14;sourcePerimeterSpacing=8;targetPerimeterSpacing=8;" edge="1" parent="1" source="GRWqvdnfIO7P4JQaUzWa-34" target="GRWqvdnfIO7P4JQaUzWa-39">
          <mxGeometry relative="1" as="geometry" />
        </mxCell>
        <mxCell id="GRWqvdnfIO7P4JQaUzWa-34" value="升级测试" style="rounded=1;whiteSpace=wrap;html=1;sketch=1;hachureGap=4;fontFamily=Architects Daughter;fontSource=https%3A%2F%2Ffonts.googleapis.com%2Fcss%3Ffamily%3DArchitects%2BDaughter;fontSize=20;" vertex="1" parent="1">
          <mxGeometry x="677.5" y="339" width="120" height="60" as="geometry" />
        </mxCell>
        <mxCell id="GRWqvdnfIO7P4JQaUzWa-43" style="edgeStyle=orthogonalEdgeStyle;curved=1;rounded=0;sketch=1;hachureGap=4;orthogonalLoop=1;jettySize=auto;html=1;entryX=1;entryY=0.5;entryDx=0;entryDy=0;fontFamily=Architects Daughter;fontSource=https%3A%2F%2Ffonts.googleapis.com%2Fcss%3Ffamily%3DArchitects%2BDaughter;fontSize=16;endArrow=open;startSize=14;endSize=14;sourcePerimeterSpacing=8;targetPerimeterSpacing=8;" edge="1" parent="1" source="GRWqvdnfIO7P4JQaUzWa-36" target="GRWqvdnfIO7P4JQaUzWa-39">
          <mxGeometry relative="1" as="geometry" />
        </mxCell>
        <mxCell id="GRWqvdnfIO7P4JQaUzWa-44" value="" style="edgeStyle=orthogonalEdgeStyle;curved=1;rounded=0;sketch=1;hachureGap=4;orthogonalLoop=1;jettySize=auto;html=1;fontFamily=Architects Daughter;fontSource=https%3A%2F%2Ffonts.googleapis.com%2Fcss%3Ffamily%3DArchitects%2BDaughter;fontSize=16;endArrow=open;startSize=14;endSize=14;sourcePerimeterSpacing=8;targetPerimeterSpacing=8;" edge="1" parent="1" source="GRWqvdnfIO7P4JQaUzWa-39" target="GRWqvdnfIO7P4JQaUzWa-42">
          <mxGeometry relative="1" as="geometry" />
        </mxCell>
        <mxCell id="GRWqvdnfIO7P4JQaUzWa-39" value="服务器打包" style="rounded=1;whiteSpace=wrap;html=1;sketch=1;hachureGap=4;fontFamily=Architects Daughter;fontSource=https%3A%2F%2Ffonts.googleapis.com%2Fcss%3Ffamily%3DArchitects%2BDaughter;fontSize=20;" vertex="1" parent="1">
          <mxGeometry x="678" y="439" width="120" height="60" as="geometry" />
        </mxCell>
        <mxCell id="GRWqvdnfIO7P4JQaUzWa-46" value="" style="edgeStyle=orthogonalEdgeStyle;curved=1;rounded=0;sketch=1;hachureGap=4;orthogonalLoop=1;jettySize=auto;html=1;fontFamily=Architects Daughter;fontSource=https%3A%2F%2Ffonts.googleapis.com%2Fcss%3Ffamily%3DArchitects%2BDaughter;fontSize=16;endArrow=open;startSize=14;endSize=14;sourcePerimeterSpacing=8;targetPerimeterSpacing=8;" edge="1" parent="1" source="GRWqvdnfIO7P4JQaUzWa-42" target="GRWqvdnfIO7P4JQaUzWa-45">
          <mxGeometry relative="1" as="geometry" />
        </mxCell>
        <mxCell id="GRWqvdnfIO7P4JQaUzWa-42" value="反向部署测试" style="rounded=1;whiteSpace=wrap;html=1;sketch=1;hachureGap=4;fontFamily=Architects Daughter;fontSource=https%3A%2F%2Ffonts.googleapis.com%2Fcss%3Ffamily%3DArchitects%2BDaughter;fontSize=20;" vertex="1" parent="1">
          <mxGeometry x="670.5" y="553" width="135" height="60" as="geometry" />
        </mxCell>
        <mxCell id="GRWqvdnfIO7P4JQaUzWa-45" value="上传到cos，并发消息" style="whiteSpace=wrap;html=1;fontSize=20;fontFamily=Architects Daughter;rounded=1;sketch=1;hachureGap=4;fontSource=https%3A%2F%2Ffonts.googleapis.com%2Fcss%3Ffamily%3DArchitects%2BDaughter;" vertex="1" parent="1">
          <mxGeometry x="678" y="666" width="120" height="60" as="geometry" />
        </mxCell>
      </root>
    </mxGraphModel>
  </diagram>
</mxfile>
